<?xml version="1.0" encoding="utf-8"?>
<!-- Generator: Adobe Illustrator 16.0.4, SVG Export Plug-In . SVG Version: 6.00 Build 0)  -->
<!DOCTYPE svg PUBLIC "-//W3C//DTD SVG 1.0//EN" "http://www.w3.org/TR/2001/REC-SVG-20010904/DTD/svg10.dtd">
<svg version="1.0" id="Wells_Fargo" xmlns="http://www.w3.org/2000/svg" xmlns:xlink="http://www.w3.org/1999/xlink" x="0px"
	 y="0px" width="100px" height="100px" viewBox="0 0 100 100" style="enable-background:new 0 0 100 100;" xml:space="preserve">
<style type="text/css">
<![CDATA[
	.st0{fill:url(#SVGID_1_);}
	.st1{fill:#FCC60A;}
]]>
</style>
<linearGradient id="SVGID_1_" gradientUnits="userSpaceOnUse" x1="-167.99902" y1="567" x2="-67.99899" y2="466.99997" gradientTransform="matrix(1 0 0 1 168 -467)">
	<stop  offset="0" style="stop-color:#79000E"/>
	<stop  offset="0.75" style="stop-color:#E61B27"/>
</linearGradient>
<rect class="st0" width="100" height="100"/>
<path class="st1" d="M84.35645,38.77002c0.88184,0.19727,1.4082,0.29785,2.21289,0.46338
	c1.99902,0.42188,3.32617,1.03125,3.32617,2.41504c0,1.05322-1.10449,2.19189-3.32324,2.19189
	c-3.0791,0-4.91016-1.72461-5.28809-4.35742h-1.81055v5.89111h1.60352l0.52246-1.40381
	c0.37012,0.33057,1.88379,1.87012,4.74609,1.87012c3.63379,0,6.38672-1.62842,6.38672-4.8208
	c0-3.10596-2.56836-4.43701-5.69824-5.05908c-0.55176-0.14502-1.06934-0.23486-1.63867-0.3584
	c-1.94531-0.4165-3.19531-0.90918-3.19531-2.30273c0-1.20801,1.2832-2.03418,3.20312-2.03418
	c2.88086,0,4.00391,1.83789,4.59668,3.81055h1.7627v-5.35107h-1.26953l-0.78418,1.17871
	c-0.14551-0.14404-1.58887-1.64111-4.4043-1.64111c-2.94727,0-5.93555,1.49707-5.93555,4.70801
	C79.36914,36.87061,81.68652,38.20264,84.35645,38.77002z M61.75244,39.48291h-1.80176
	c-0.24268,2.69385-0.73242,4.1377-3.17529,4.1377H53.2207V32.56348c0-0.86768,0.35107-1.09424,1.39355-1.09424h1.32031v-1.74463
	h-8.646v1.74463h1.36865c0.94434,0,1.25879,0.31299,1.25879,1.02441v10.07764c0,0.81299-0.44824,1.04932-1.11377,1.04932h-1.51367
	v1.75342h14.46387V39.48291z M77.80566,39.48291h-1.81152c-0.23828,2.69385-0.74316,4.1377-3.16602,4.1377h-3.55957V32.56348
	c0-0.86768,0.3501-1.09424,1.39307-1.09424h1.32031v-1.74463h-8.65137v1.74463h1.36963c0.94922,0,1.26465,0.31299,1.26465,1.02441
	v10.07764c0,0.81299-0.44922,1.04932-1.11084,1.04932h-1.52344v1.75342h14.4751V39.48291z M15.85352,45.37402l2.74512-8.12305
	h0.05322l2.47119,8.12305h3.24951l4.26709-12.45898c0.39258-1.17725,0.92969-1.4458,2.05029-1.4458h0.47754
	c1.0918,0,1.56738,0.31299,1.56738,1.34277v9.15771c0,1.41455-0.43994,1.65088-1.25684,1.65088h-1.30957v1.75342h15.47998v-5.89111
	h-1.70898c-0.25879,2.71631-1.03809,4.1377-3.17969,4.1377h-4.71094v-5.49219h1.11865c1.42041,0,2.06494,0.72461,2.06494,2.64258
	v0.32275h1.65039v-7.62939h-1.65039V33.771c0,1.92285-0.64453,2.61426-2.06494,2.61426h-1.11865v-4.91602h4.14844
	c3.1377,0,3.33691,1.34375,3.69434,3.60645l1.75684,0.00732v-5.3584H24.19385v1.74463h1.13965
	c0.82471,0,1.01074,0.35156,1.01074,0.71484c0,0.29688-0.09082,0.53467-0.18311,0.81348l-3.00928,8.51855h-0.04102l-2.58594-8.72314
	c-0.0835-0.21924-0.19629-0.56689-0.19629-0.80518c0-0.30225,0.17969-0.51855,0.66113-0.51855h1.24854v-1.74463h-7.06055v1.74463
	h0.56201c0.68701,0,1.16113,0.18555,1.39844,0.87988l0.40283,1.11523l-2.82324,8.20752h-0.05225l-2.95166-8.72559
	c-0.12988-0.3291-0.21631-0.62158-0.21631-0.85498c0-0.30908,0.21631-0.62207,0.72656-0.62207h0.99658v-1.74463H6.38574
	l0.01611,1.74463c0,0,0.3042,0,0.31445,0c0.89307,0,1.22314,0.19629,1.4209,0.83691l4.43213,13.06787H15.85352z M83.4209,53.63574
	c-5.13086,0-8.52148,3.59131-8.52148,8.29004c0,4.69824,3.39062,8.31055,8.52148,8.31055c5.1123,0,8.51953-3.6123,8.51953-8.31055
	C91.94043,57.22705,88.5332,53.63574,83.4209,53.63574z M83.4209,68.37842c-3.72168,0-4.82324-3.0791-4.82324-6.45264
	c0-3.36816,1.10156-6.4502,4.82324-6.4502c3.70996,0,4.81445,3.08203,4.81445,6.4502
	C88.23535,65.29932,87.13086,68.37842,83.4209,68.37842z M66.146,63.16211h1.06787c0.7793,0,1.25342,0.34277,1.25342,1.10742
	v0.90723c0,1.79492-1.10303,3.04785-3.49951,3.04785c-3.00439,0-4.50049-2.70459-4.50049-6.29883
	c0-3.53955,1.50293-6.25342,4.40918-6.25342c3.0332,0,4.06689,2.82715,4.41113,3.77881h1.94043v-5.34912h-1.6499l-0.58789,1.28809
	c-0.3374-0.31152-1.80225-1.75439-4.69873-1.75439c-4.62402,0-7.53027,3.52148-7.53027,8.29004
	c0,4.80664,2.95361,8.31055,7.53027,8.31055c2.94775,0,4.54736-1.34131,4.90527-1.67822l0.88184,1.20117h1.60449v-5.42822
	c0-0.92383,0.34033-1.16895,1.25342-1.16895h0.43945v-1.75H66.146V63.16211z M18.33252,55.8457
	c3.46191,0,3.82324,1.74365,4.05566,3.60547h1.69336v-5.34912H9.27246v1.74365h1.5625c0.70703,0,1.10498,0.32178,1.10498,0.896
	v10.1001c0,0.66113-0.35596,1.14941-1.19141,1.14941H9.27246v1.76807h8.6499v-1.76807h-1.18018
	c-1.09131,0-1.49756-0.32422-1.49756-1.20508v-4.26367h0.97119c1.47021,0,2.10498,0.63965,2.10498,2.29492v0.51514h1.6416v-7.18701
	h-1.6416v0.30225c0,1.21631-0.44336,2.33252-1.96289,2.33252h-1.11328V55.8457H18.33252z M54.42822,66.50439
	c0,1.04932-0.30029,1.48682-0.85645,1.48682c-0.56885,0-0.90869-0.35156-0.90869-1.96045v-0.91455
	c0-2.40576-1.39404-3.08936-3.05029-3.21289v-0.03955c1.40869-0.07373,4.42822-0.66943,4.42822-3.69678
	c0-2.44727-1.6001-4.06494-5.01172-4.06494H38.75488v1.74365h1.63965c0.73535,0,0.97314,0.22412,0.97314,0.85547v10.4502
	c0,0.61914-0.29834,0.83984-0.97314,0.83984H39.7583c-1.25,0-2.04688-0.15869-2.48096-1.26611l-5.10693-12.62305h-3.00488
	L24.17432,66.7251c-0.44482,1.0957-1.23877,1.26611-2.47754,1.26611v1.76807h7.36279v-1.76807h-1.66895
	c-0.45801,0-0.7334-0.1084-0.7334-0.4375c0-0.22852,0.05127-0.42383,0.1333-0.65576c0.12109-0.2959,0.80322-2.17334,0.80322-2.17334
	h5.58447c0,0,0.74463,2.02197,0.81982,2.23047c0.09131,0.2583,0.14209,0.49561,0.14209,0.63916
	c0,0.28711-0.17578,0.39697-0.65137,0.39697h-1.74463v1.76807H47.3667v-1.76807h-1.71826c-0.67773,0-0.97119-0.2207-0.97119-0.83984
	v-4.72998h1.23877c2.62256,0,3.76807,1.0835,3.76807,3.78662c0,0,0,0.77686,0,0.80664c0,2.12793,0.76807,3.22168,3.05078,3.22168
	c1.95557,0,3.24658-1.03076,3.24658-3.73193v-0.42725h-1.55322V66.50439z M28.24756,62.99023l2.11377-5.69043h0.06299
	l2.11475,5.69043H28.24756z M47.58887,60.67773h-2.91162V55.8457h2.91162c2.18311,0,3.16504,1.04248,3.16504,2.4165
	C50.75391,59.76904,49.60156,60.67773,47.58887,60.67773z"/>
</svg>
